# xmcd
#
# Track frame offsets: 
#        150
#        17475
#        34689
#        56176
#        76388
#        97350
#        117451
#        142052
#        162903
#        190502
#        207376
#        225526
#        249189
#        270940
#        291716
#        309416
#
# Disc length: 4400 seconds
#
# Revision: 1
# Processed by: cddbd v1.5.2PL0 Copyright (c) Steve Scherf et al.
# Submitted via: ExactAudioCopy v0.99pb5
#
DISCID=e3112e10
DTITLE=Various Artist - My Favourites Blues (Blues Rock) vol.1
DYEAR=2001
DGENRE=Blues-Rock
TTITLE0=Joe Bonamassa - Cradle Rock
TTITLE1=Cry Of Love - Pretty As You Please
TTITLE2=Wild' T' And The Spirit - I'm A Rivere
TTITLE3=Harpface And The Heat - Politician
TTITLE4=Oriental Spas - Feelin Airight
TTITLE5=Colin James - Mystery To Me
TTITLE6=Tim Brooks - Dull You Under
TTITLE7=A.L.L. - Save Me
TTITLE8=White Line - Mental Crowd
TTITLE9=Gravy - Junkyard Man
TTITLE10=The Dusters - Roadhouse Blues
TTITLE11=Indigenous - Holdin Out
TTITLE12=Albatross - Man Of The World [Usa]
TTITLE13=Bugs Henderson Group - Qucksand
TTITLE14=Van Wilks - Texas' 51
TTITLE15=Kevin Russel - Train Cenductor
EXTD=
EXTT0=
EXTT1=
EXTT2=
EXTT3=
EXTT4=
EXTT5=
EXTT6=
EXTT7=
EXTT8=
EXTT9=
EXTT10=
EXTT11=
EXTT12=
EXTT13=
EXTT14=
EXTT15=
PLAYORDER=
